G04 Generated by Ultiboard 14.1 *
%FSLAX34Y34*%
%MOMM*%

%ADD10C,0.0001*%
%ADD11C,0.1000*%
%ADD12C,0.1270*%


G04 ColorRGB CC99CC for the following layer *
%LNKeep-in/keep-out*%
%LPD*%
G54D10*
G54D11*
X429260Y172720D02*
X449260Y172720D01*
X469260Y172720D02*
X477520Y172720D01*
X476739Y161006D01*
X475409Y141050D02*
X474980Y134620D01*
X461425Y134620D01*
X441425Y134620D02*
X429260Y134620D01*
X429260Y142455D01*
X429260Y162455D02*
X429260Y172720D01*
X505460Y172720D02*
X506790Y152764D01*
X506278Y135194D02*
X487304Y141519D01*
X494969Y156983D02*
X505460Y172720D01*
X12700Y149860D02*
X32672Y148809D01*
X52645Y147758D02*
X60960Y147320D01*
X72622Y146813D01*
X92603Y145944D02*
X112584Y145075D01*
X117514Y131715D02*
X116840Y127000D01*
X101607Y127363D01*
X81612Y127839D02*
X61618Y128315D01*
X41624Y128791D02*
X21629Y129267D01*
X11218Y138001D02*
X12700Y149860D01*
X515620Y165100D02*
X535620Y165100D01*
X555620Y165100D02*
X568960Y165100D01*
X563759Y160940D01*
X548142Y148446D02*
X543560Y144780D01*
X532131Y153092D01*
X515956Y164856D02*
X515620Y165100D01*
X520700Y205740D02*
X540700Y205740D01*
X560700Y205740D02*
X580700Y205740D01*
X600700Y205740D02*
X609600Y205740D01*
X601751Y197891D01*
X587609Y183749D02*
X581660Y177800D01*
X570073Y177800D01*
X550073Y177800D02*
X530073Y177800D01*
X522970Y193254D02*
X520700Y205740D01*
G54D12*
X-27872Y-45720D02*
X-27872Y31437D01*
X-27872Y-45720D02*
X65339Y-45720D01*
X904240Y-45720D02*
X811029Y-45720D01*
X904240Y-45720D02*
X904240Y31437D01*
X904240Y725851D02*
X904240Y648694D01*
X904240Y725851D02*
X811029Y725851D01*
X-27872Y725851D02*
X65339Y725851D01*
X-27872Y725851D02*
X-27872Y648694D01*
X-77872Y-45720D02*
X-177872Y-45720D01*
X-127872Y-95720D02*
X-127872Y4280D01*
X-165372Y-45720D02*
G75*
D01*
G02X-165372Y-45720I37500J0*
G01*
X954240Y-45720D02*
X1054240Y-45720D01*
X1004240Y-95720D02*
X1004240Y4280D01*
X966740Y-45720D02*
G75*
D01*
G02X966740Y-45720I37500J0*
G01*
X991740Y-45720D02*
G75*
D01*
G02X991740Y-45720I12500J0*
G01*
X-77872Y725851D02*
X-177872Y725851D01*
X-127872Y675851D02*
X-127872Y775851D01*
X-165372Y725851D02*
G75*
D01*
G02X-165372Y725851I37500J0*
G01*
X-152872Y725851D02*
G75*
D01*
G02X-152872Y725851I25000J0*
G01*
X-140372Y725851D02*
G75*
D01*
G02X-140372Y725851I12500J0*
G01*

M02*
