G04 Generated by Ultiboard 14.1 *
%FSLAX34Y34*%
%MOMM*%

%ADD10C,0.0001*%
%ADD11C,0.2032*%
%ADD12C,0.0010*%
%ADD13C,0.1556*%
%ADD14C,0.1000*%
%ADD15C,0.1129*%
%ADD16C,0.2000*%
%ADD17C,0.1270*%
%ADD18C,0.50000*%
%ADD19C,1.00000*%


G04 ColorRGB FFFF00 for the following layer *
%LNSilkscreen Top*%
%LPD*%
G54D10*
G54D11*
X127816Y354189D02*
X126305Y351367D01*
X126305Y348544D01*
X127816Y345722D01*
X133864Y345722D01*
X132352Y341489D02*
X133864Y338667D01*
X133864Y335844D01*
X132352Y333022D01*
X131596Y333022D01*
X126305Y341489D01*
X126305Y333022D01*
X127060Y333022D01*
X54187Y5292D02*
X54187Y405342D01*
X119803Y5292D02*
X119803Y405342D01*
X54187Y405342D01*
X85937Y346075D02*
X94403Y346075D01*
X90170Y350308D02*
X90170Y341842D01*
X83820Y255058D02*
X90170Y255058D01*
X119803Y53975D02*
X54187Y53975D01*
X54187Y5292D02*
X119803Y5292D01*
X83820Y174625D02*
X90170Y174625D01*
X83820Y250825D02*
X90170Y250825D01*
X85937Y248708D02*
X90170Y248708D01*
X88054Y240242D02*
X88046Y240426D01*
X88022Y240610D01*
X87982Y240790D01*
X87926Y240966D01*
X87855Y241137D01*
X87770Y241300D01*
X87671Y241456D01*
X87558Y241603D01*
X87434Y241739D01*
X87298Y241863D01*
X87151Y241976D01*
X86995Y242075D01*
X86832Y242160D01*
X86661Y242231D01*
X86485Y242287D01*
X86305Y242327D01*
X86121Y242351D01*
X85937Y242359D01*
X83820Y178858D02*
X90170Y178858D01*
X85937Y172508D02*
X90170Y172508D01*
X92287Y164042D02*
X83820Y164042D01*
X85937Y248709D02*
X85753Y248701D01*
X85569Y248677D01*
X85389Y248637D01*
X85213Y248581D01*
X85042Y248510D01*
X84879Y248425D01*
X84723Y248326D01*
X84576Y248213D01*
X84440Y248089D01*
X84316Y247953D01*
X84203Y247806D01*
X84104Y247650D01*
X84019Y247487D01*
X83948Y247316D01*
X83892Y247140D01*
X83852Y246960D01*
X83828Y246776D01*
X83820Y246592D01*
X83828Y246408D01*
X83852Y246224D01*
X83892Y246044D01*
X83948Y245868D01*
X84019Y245697D01*
X84104Y245534D01*
X84203Y245378D01*
X84316Y245231D01*
X84440Y245095D01*
X84576Y244971D01*
X84723Y244858D01*
X84879Y244759D01*
X85042Y244674D01*
X85213Y244603D01*
X85389Y244547D01*
X85569Y244507D01*
X85753Y244483D01*
X85937Y244475D01*
X83820Y242358D02*
X85937Y242358D01*
X85937Y172509D02*
X85753Y172501D01*
X85569Y172477D01*
X85389Y172437D01*
X85213Y172381D01*
X85042Y172310D01*
X84879Y172225D01*
X84723Y172126D01*
X84576Y172013D01*
X84440Y171889D01*
X84316Y171753D01*
X84203Y171606D01*
X84104Y171450D01*
X84019Y171287D01*
X83948Y171116D01*
X83892Y170940D01*
X83852Y170760D01*
X83828Y170576D01*
X83820Y170392D01*
X83828Y170208D01*
X83852Y170024D01*
X83892Y169844D01*
X83948Y169668D01*
X84019Y169497D01*
X84104Y169334D01*
X84203Y169178D01*
X84316Y169031D01*
X84440Y168895D01*
X84576Y168771D01*
X84723Y168658D01*
X84879Y168559D01*
X85042Y168474D01*
X85213Y168403D01*
X85389Y168347D01*
X85569Y168307D01*
X85753Y168283D01*
X85937Y168275D01*
X83820Y238125D02*
X83820Y242358D01*
X88053Y255058D02*
X88053Y250825D01*
X88053Y240242D02*
X88061Y240058D01*
X88085Y239874D01*
X88125Y239694D01*
X88181Y239518D01*
X88252Y239347D01*
X88337Y239184D01*
X88436Y239028D01*
X88549Y238881D01*
X88673Y238745D01*
X88809Y238621D01*
X88956Y238508D01*
X89112Y238409D01*
X89275Y238324D01*
X89446Y238253D01*
X89622Y238197D01*
X89802Y238157D01*
X89986Y238133D01*
X90170Y238125D01*
X90354Y238133D01*
X90538Y238157D01*
X90718Y238197D01*
X90894Y238253D01*
X91065Y238324D01*
X91228Y238409D01*
X91384Y238508D01*
X91531Y238621D01*
X91667Y238745D01*
X91791Y238881D01*
X91904Y239028D01*
X92003Y239184D01*
X92088Y239347D01*
X92159Y239518D01*
X92215Y239694D01*
X92255Y239874D01*
X92279Y240058D01*
X92287Y240242D01*
X92279Y240426D01*
X92255Y240610D01*
X92215Y240790D01*
X92159Y240966D01*
X92088Y241137D01*
X92003Y241300D01*
X91904Y241456D01*
X91791Y241603D01*
X91667Y241739D01*
X91531Y241863D01*
X91384Y241976D01*
X91228Y242075D01*
X91065Y242160D01*
X90894Y242231D01*
X90718Y242287D01*
X90538Y242327D01*
X90354Y242351D01*
X90170Y242359D01*
X90170Y250825D02*
X90354Y250833D01*
X90538Y250857D01*
X90718Y250897D01*
X90894Y250953D01*
X91065Y251024D01*
X91228Y251109D01*
X91384Y251208D01*
X91531Y251321D01*
X91667Y251445D01*
X91791Y251581D01*
X91904Y251728D01*
X92003Y251884D01*
X92088Y252047D01*
X92159Y252218D01*
X92215Y252394D01*
X92255Y252574D01*
X92279Y252758D01*
X92287Y252942D01*
X92279Y253126D01*
X92255Y253310D01*
X92215Y253490D01*
X92159Y253666D01*
X92088Y253837D01*
X92003Y254000D01*
X91904Y254156D01*
X91791Y254303D01*
X91667Y254439D01*
X91531Y254563D01*
X91384Y254676D01*
X91228Y254775D01*
X91065Y254860D01*
X90894Y254931D01*
X90718Y254987D01*
X90538Y255027D01*
X90354Y255051D01*
X90170Y255059D01*
X90170Y244475D02*
X90354Y244483D01*
X90538Y244507D01*
X90718Y244547D01*
X90894Y244603D01*
X91065Y244674D01*
X91228Y244759D01*
X91384Y244858D01*
X91531Y244971D01*
X91667Y245095D01*
X91791Y245231D01*
X91904Y245378D01*
X92003Y245534D01*
X92088Y245697D01*
X92159Y245868D01*
X92215Y246044D01*
X92255Y246224D01*
X92279Y246408D01*
X92287Y246592D01*
X92279Y246776D01*
X92255Y246960D01*
X92215Y247140D01*
X92159Y247316D01*
X92088Y247487D01*
X92003Y247650D01*
X91904Y247806D01*
X91791Y247953D01*
X91667Y248089D01*
X91531Y248213D01*
X91384Y248326D01*
X91228Y248425D01*
X91065Y248510D01*
X90894Y248581D01*
X90718Y248637D01*
X90538Y248677D01*
X90354Y248701D01*
X90170Y248709D01*
X88053Y178858D02*
X88053Y174625D01*
X90170Y174625D02*
X90354Y174633D01*
X90538Y174657D01*
X90718Y174697D01*
X90894Y174753D01*
X91065Y174824D01*
X91228Y174909D01*
X91384Y175008D01*
X91531Y175121D01*
X91667Y175245D01*
X91791Y175381D01*
X91904Y175528D01*
X92003Y175684D01*
X92088Y175847D01*
X92159Y176018D01*
X92215Y176194D01*
X92255Y176374D01*
X92279Y176558D01*
X92287Y176742D01*
X92279Y176926D01*
X92255Y177110D01*
X92215Y177290D01*
X92159Y177466D01*
X92088Y177637D01*
X92003Y177800D01*
X91904Y177956D01*
X91791Y178103D01*
X91667Y178239D01*
X91531Y178363D01*
X91384Y178476D01*
X91228Y178575D01*
X91065Y178660D01*
X90894Y178731D01*
X90718Y178787D01*
X90538Y178827D01*
X90354Y178851D01*
X90170Y178859D01*
X90170Y166158D02*
X92287Y164042D01*
X90170Y168275D02*
X90354Y168283D01*
X90538Y168307D01*
X90718Y168347D01*
X90894Y168403D01*
X91065Y168474D01*
X91228Y168559D01*
X91384Y168658D01*
X91531Y168771D01*
X91667Y168895D01*
X91791Y169031D01*
X91904Y169178D01*
X92003Y169334D01*
X92088Y169497D01*
X92159Y169668D01*
X92215Y169844D01*
X92255Y170024D01*
X92279Y170208D01*
X92287Y170392D01*
X92279Y170576D01*
X92255Y170760D01*
X92215Y170940D01*
X92159Y171116D01*
X92088Y171287D01*
X92003Y171450D01*
X91904Y171606D01*
X91791Y171753D01*
X91667Y171889D01*
X91531Y172013D01*
X91384Y172126D01*
X91228Y172225D01*
X91065Y172310D01*
X90894Y172381D01*
X90718Y172437D01*
X90538Y172477D01*
X90354Y172501D01*
X90170Y172509D01*
X90170Y100542D02*
X90170Y92075D01*
X114003Y58998D02*
X114003Y54483D01*
X115152Y52225D01*
X118599Y52225D01*
X119748Y54483D01*
X119748Y58998D01*
X119748Y57869D02*
X114003Y57869D01*
X118599Y47709D02*
X119748Y45451D01*
X114003Y45451D01*
X114003Y48838D02*
X114003Y42065D01*
X124460Y40000D02*
X142240Y61590D01*
X160020Y40000D01*
X160020Y60320D02*
X124460Y60320D01*
X124460Y61590D02*
X160020Y61590D01*
X160020Y62860D02*
X124460Y62860D01*
X142240Y116200D02*
X142240Y61590D01*
X160020Y40000D02*
X124460Y40000D01*
X154643Y58998D02*
X154643Y54483D01*
X155792Y52225D01*
X159239Y52225D01*
X160388Y54483D01*
X160388Y58998D01*
X160388Y57869D02*
X154643Y57869D01*
X159239Y48838D02*
X160388Y46580D01*
X160388Y44323D01*
X159239Y42065D01*
X158664Y42065D01*
X154643Y48838D01*
X154643Y42065D01*
X155217Y42065D01*
X165100Y40000D02*
X182880Y61590D01*
X200660Y40000D01*
X200660Y60320D02*
X165100Y60320D01*
X165100Y61590D02*
X200660Y61590D01*
X200660Y62860D02*
X165100Y62860D01*
X182880Y116200D02*
X182880Y61590D01*
X200660Y40000D02*
X165100Y40000D01*
X232388Y124911D02*
X230388Y126902D01*
X230388Y128893D01*
X232388Y130884D01*
X238388Y130884D01*
X240388Y128893D01*
X240388Y126902D01*
X238388Y124911D01*
X239388Y120929D02*
X240388Y119933D01*
X240388Y117942D01*
X238388Y115951D01*
X236388Y115951D01*
X235388Y116947D01*
X234388Y115951D01*
X232388Y115951D01*
X230388Y117942D01*
X230388Y119933D01*
X231388Y120929D01*
X235388Y119933D02*
X235388Y116947D01*
X250680Y122620D02*
G75*
D01*
G02X250680Y122620I110000J0*
G01*
X331070Y172163D02*
X320910Y172163D01*
X325990Y167083D02*
X325990Y177243D01*
X496548Y124911D02*
X494548Y126902D01*
X494548Y128893D01*
X496548Y130884D01*
X502548Y130884D01*
X504548Y128893D01*
X504548Y126902D01*
X502548Y124911D01*
X498548Y115951D02*
X498548Y121924D01*
X504548Y116947D01*
X494548Y116947D01*
X494548Y117942D02*
X494548Y115951D01*
X514840Y122620D02*
G75*
D01*
G02X514840Y122620I110000J0*
G01*
X595230Y172163D02*
X585070Y172163D01*
X590150Y167083D02*
X590150Y177243D01*
X114003Y236798D02*
X114003Y232283D01*
X115152Y230025D01*
X118599Y230025D01*
X119748Y232283D01*
X119748Y236798D01*
X119748Y235669D02*
X114003Y235669D01*
X119173Y225509D02*
X119748Y224380D01*
X119748Y222123D01*
X118599Y219865D01*
X117450Y219865D01*
X116875Y220994D01*
X116301Y219865D01*
X115152Y219865D01*
X114003Y222123D01*
X114003Y224380D01*
X114577Y225509D01*
X116875Y224380D02*
X116875Y220994D01*
X124460Y217800D02*
X142240Y239390D01*
X160020Y217800D01*
X160020Y238120D02*
X124460Y238120D01*
X124460Y239390D02*
X160020Y239390D01*
X160020Y240660D02*
X124460Y240660D01*
X142240Y294000D02*
X142240Y239390D01*
X160020Y217800D02*
X124460Y217800D01*
X154643Y236798D02*
X154643Y232283D01*
X155792Y230025D01*
X159239Y230025D01*
X160388Y232283D01*
X160388Y236798D01*
X160388Y235669D02*
X154643Y235669D01*
X156941Y219865D02*
X156941Y226638D01*
X160388Y220994D01*
X154643Y220994D01*
X154643Y222123D02*
X154643Y219865D01*
X165100Y217800D02*
X182880Y239390D01*
X200660Y217800D01*
X200660Y238120D02*
X165100Y238120D01*
X165100Y239390D02*
X200660Y239390D01*
X200660Y240660D02*
X165100Y240660D01*
X182880Y294000D02*
X182880Y239390D01*
X200660Y217800D02*
X165100Y217800D01*
X261056Y208522D02*
X263878Y210034D01*
X266700Y210034D01*
X269522Y208522D01*
X269522Y203986D01*
X266700Y202474D01*
X263878Y202474D01*
X261056Y203986D01*
X249767Y202474D02*
X254000Y202474D01*
X256822Y203986D01*
X256822Y207010D01*
X256822Y208522D01*
X254000Y210034D01*
X251178Y210034D01*
X248356Y208522D01*
X248356Y207010D01*
X251178Y205498D01*
X254000Y205498D01*
X256822Y207010D01*
X270933Y221827D02*
X272409Y221891D01*
X273873Y222084D01*
X275316Y222404D01*
X276725Y222848D01*
X278089Y223413D01*
X279400Y224095D01*
X280646Y224889D01*
X281818Y225788D01*
X282907Y226786D01*
X283905Y227875D01*
X284804Y229047D01*
X285598Y230293D01*
X285928Y247072D02*
X285147Y248347D01*
X284257Y249550D01*
X283266Y250670D01*
X282181Y251699D01*
X281011Y252631D01*
X279763Y253456D01*
X278449Y254170D01*
X277077Y254766D01*
X275659Y255241D01*
X274204Y255590D01*
X272725Y255811D01*
X271232Y255902D01*
X270933Y255905D01*
X259080Y238760D02*
X262890Y238760D01*
X256540Y246380D02*
X256540Y231140D01*
X257810Y231140D02*
X257810Y246380D01*
X259080Y246380D02*
X259080Y231140D01*
X250190Y246380D02*
X250190Y231140D01*
X251460Y231140D02*
X251460Y246380D01*
X248920Y231140D02*
X248920Y246380D01*
X248920Y238760D02*
X245110Y238760D01*
X270933Y255693D02*
X237067Y255693D01*
X235591Y255629D01*
X234127Y255436D01*
X232684Y255116D01*
X231275Y254672D01*
X229911Y254107D01*
X228600Y253425D01*
X227354Y252631D01*
X226182Y251732D01*
X225093Y250734D01*
X224095Y249645D01*
X223196Y248473D01*
X222402Y247227D01*
X270933Y221827D02*
X237067Y221827D01*
X222072Y230448D02*
X222853Y229173D01*
X223743Y227970D01*
X224734Y226850D01*
X225819Y225821D01*
X226989Y224889D01*
X228237Y224064D01*
X229551Y223350D01*
X230923Y222754D01*
X232341Y222279D01*
X233796Y221930D01*
X235275Y221709D01*
X236768Y221618D01*
X237067Y221615D01*
X456071Y234854D02*
X456071Y229049D01*
X458893Y227597D01*
X461716Y227597D01*
X464538Y229049D01*
X464538Y234854D01*
X468771Y233403D02*
X471593Y234854D01*
X474416Y234854D01*
X477238Y233403D01*
X477238Y232677D01*
X468771Y227597D01*
X477238Y227597D01*
X477238Y228323D01*
X441960Y283417D02*
X543560Y283417D01*
X441960Y236850D02*
X441960Y283417D01*
X475827Y281300D02*
X475827Y283417D01*
X509693Y281300D02*
X509693Y283417D01*
X543560Y283417D02*
X543560Y236850D01*
X441960Y236850D01*
X543560Y277067D02*
X441960Y277067D01*
X456777Y270717D02*
X452543Y270717D01*
X454660Y272833D02*
X454660Y268600D01*
X475827Y279183D02*
X475827Y277067D01*
X465243Y266483D02*
X461010Y274950D01*
X465243Y274950D02*
X465243Y266483D01*
X458893Y266483D02*
X458893Y274950D01*
X461010Y274950D02*
X461010Y266483D01*
X516043Y268600D02*
X516051Y268416D01*
X516075Y268232D01*
X516115Y268052D01*
X516171Y267876D01*
X516242Y267705D01*
X516327Y267542D01*
X516426Y267386D01*
X516539Y267239D01*
X516663Y267103D01*
X516799Y266979D01*
X516946Y266866D01*
X517102Y266767D01*
X517265Y266682D01*
X517436Y266611D01*
X517612Y266555D01*
X517792Y266515D01*
X517976Y266491D01*
X518160Y266483D01*
X518344Y266491D01*
X518528Y266515D01*
X518708Y266555D01*
X518884Y266611D01*
X519055Y266682D01*
X519218Y266767D01*
X519374Y266866D01*
X519521Y266979D01*
X519657Y267103D01*
X519781Y267239D01*
X519894Y267386D01*
X519993Y267542D01*
X520078Y267705D01*
X520149Y267876D01*
X520205Y268052D01*
X520245Y268232D01*
X520269Y268416D01*
X520277Y268600D01*
X488527Y266483D02*
X486410Y270717D01*
X486410Y270716D02*
X486594Y270724D01*
X486778Y270748D01*
X486958Y270788D01*
X487134Y270844D01*
X487305Y270915D01*
X487468Y271000D01*
X487624Y271099D01*
X487771Y271212D01*
X487907Y271336D01*
X488031Y271472D01*
X488144Y271619D01*
X488243Y271775D01*
X488328Y271938D01*
X488399Y272109D01*
X488455Y272285D01*
X488495Y272465D01*
X488519Y272649D01*
X488527Y272833D01*
X488519Y273017D01*
X488495Y273201D01*
X488455Y273381D01*
X488399Y273557D01*
X488328Y273728D01*
X488243Y273891D01*
X488144Y274047D01*
X488031Y274194D01*
X487907Y274330D01*
X487771Y274454D01*
X487624Y274567D01*
X487468Y274666D01*
X487305Y274751D01*
X487134Y274822D01*
X486958Y274878D01*
X486778Y274918D01*
X486594Y274942D01*
X486410Y274950D01*
X486410Y270717D02*
X484293Y270717D01*
X484293Y274950D02*
X486410Y274950D01*
X484293Y266483D02*
X484293Y274950D01*
X496993Y274950D02*
X501227Y274950D01*
X496993Y266483D02*
X496993Y274950D01*
X496993Y270717D02*
X499110Y270717D01*
X490643Y266483D02*
X490643Y274950D01*
X494877Y266483D02*
X490643Y266483D01*
X490643Y270717D02*
X492760Y270717D01*
X490643Y274950D02*
X494877Y274950D01*
X516043Y274950D02*
X516043Y268600D01*
X509693Y279183D02*
X509693Y277067D01*
X509693Y268600D02*
X509701Y268416D01*
X509725Y268232D01*
X509765Y268052D01*
X509821Y267876D01*
X509892Y267705D01*
X509977Y267542D01*
X510076Y267386D01*
X510189Y267239D01*
X510313Y267103D01*
X510449Y266979D01*
X510596Y266866D01*
X510752Y266767D01*
X510915Y266682D01*
X511086Y266611D01*
X511262Y266555D01*
X511442Y266515D01*
X511626Y266491D01*
X511810Y266483D01*
X511994Y266491D01*
X512178Y266515D01*
X512358Y266555D01*
X512534Y266611D01*
X512705Y266682D01*
X512868Y266767D01*
X513024Y266866D01*
X513171Y266979D01*
X513307Y267103D01*
X513431Y267239D01*
X513544Y267386D01*
X513643Y267542D01*
X513728Y267705D01*
X513799Y267876D01*
X513855Y268052D01*
X513895Y268232D01*
X513919Y268416D01*
X513927Y268600D01*
X507577Y270717D02*
X503343Y270717D01*
X505460Y272833D02*
X505460Y268600D01*
X513927Y272833D02*
X513927Y268600D01*
X509693Y268600D02*
X509693Y272833D01*
X513927Y272833D02*
X513919Y273017D01*
X513895Y273201D01*
X513855Y273381D01*
X513799Y273557D01*
X513728Y273728D01*
X513643Y273891D01*
X513544Y274047D01*
X513431Y274194D01*
X513307Y274330D01*
X513171Y274454D01*
X513024Y274567D01*
X512868Y274666D01*
X512705Y274751D01*
X512534Y274822D01*
X512358Y274878D01*
X512178Y274918D01*
X511994Y274942D01*
X511810Y274950D01*
X511626Y274942D01*
X511442Y274918D01*
X511262Y274878D01*
X511086Y274822D01*
X510915Y274751D01*
X510752Y274666D01*
X510596Y274567D01*
X510449Y274454D01*
X510313Y274330D01*
X510189Y274194D01*
X510076Y274047D01*
X509977Y273891D01*
X509892Y273728D01*
X509821Y273557D01*
X509765Y273381D01*
X509725Y273201D01*
X509701Y273017D01*
X509693Y272833D01*
X522393Y274950D02*
X526627Y274950D01*
X520277Y268600D02*
X520277Y274950D01*
X524510Y274950D02*
X524510Y266483D01*
X347939Y310544D02*
X347939Y315060D01*
X346669Y317317D01*
X342859Y317317D01*
X341589Y315060D01*
X341589Y310544D01*
X341589Y311673D02*
X347939Y311673D01*
X341589Y326349D02*
X341589Y322962D01*
X342859Y320704D01*
X345399Y320704D01*
X346669Y320704D01*
X347939Y322962D01*
X347939Y325220D01*
X346669Y327477D01*
X345399Y327477D01*
X344129Y325220D01*
X344129Y322962D01*
X345399Y320704D01*
X325120Y269240D02*
X325120Y312420D01*
X313690Y326390D01*
X336550Y326390D02*
X325120Y312420D01*
X313690Y313690D02*
X336550Y313690D01*
X336550Y312420D02*
X313690Y312420D01*
X313690Y311150D02*
X336550Y311150D01*
X313690Y326390D02*
X336550Y326390D01*
X433372Y283029D02*
X435372Y281038D01*
X435372Y279047D01*
X433372Y277056D01*
X427372Y277056D01*
X425372Y279047D01*
X425372Y281038D01*
X427372Y283029D01*
X425372Y291989D02*
X425372Y286016D01*
X429372Y286016D01*
X429372Y289998D01*
X431372Y291989D01*
X433372Y291989D01*
X435372Y289998D01*
X435372Y286016D01*
X353580Y286320D02*
G75*
D01*
G02X353580Y286320I31500J0*
G01*
X472198Y332176D02*
X470686Y334998D01*
X470686Y337820D01*
X472198Y340642D01*
X476734Y340642D01*
X478246Y337820D01*
X478246Y334998D01*
X476734Y332176D01*
X476734Y326531D02*
X478246Y323709D01*
X470686Y323709D01*
X470686Y327942D02*
X470686Y319476D01*
X458893Y342053D02*
X458829Y343529D01*
X458636Y344993D01*
X458316Y346436D01*
X457872Y347845D01*
X457307Y349209D01*
X456625Y350520D01*
X455831Y351766D01*
X454932Y352938D01*
X453934Y354027D01*
X452845Y355025D01*
X451673Y355924D01*
X450427Y356718D01*
X433648Y357048D02*
X432373Y356267D01*
X431170Y355377D01*
X430050Y354386D01*
X429021Y353301D01*
X428089Y352131D01*
X427264Y350883D01*
X426550Y349569D01*
X425954Y348197D01*
X425479Y346779D01*
X425130Y345324D01*
X424909Y343845D01*
X424818Y342352D01*
X424815Y342053D01*
X441960Y330200D02*
X441960Y334010D01*
X434340Y327660D02*
X449580Y327660D01*
X449580Y328930D02*
X434340Y328930D01*
X434340Y330200D02*
X449580Y330200D01*
X434340Y321310D02*
X449580Y321310D01*
X449580Y322580D02*
X434340Y322580D01*
X449580Y320040D02*
X434340Y320040D01*
X441960Y320040D02*
X441960Y316230D01*
X425027Y342053D02*
X425027Y308187D01*
X425091Y306711D01*
X425284Y305247D01*
X425604Y303804D01*
X426048Y302395D01*
X426613Y301031D01*
X427295Y299720D01*
X428089Y298474D01*
X428988Y297302D01*
X429986Y296213D01*
X431075Y295215D01*
X432247Y294316D01*
X433493Y293522D01*
X458893Y342053D02*
X458893Y308187D01*
X450272Y293192D02*
X451547Y293973D01*
X452750Y294863D01*
X453870Y295854D01*
X454899Y296939D01*
X455831Y298109D01*
X456656Y299357D01*
X457370Y300671D01*
X457966Y302043D01*
X458441Y303461D01*
X458790Y304916D01*
X459011Y306395D01*
X459102Y307888D01*
X459105Y308187D01*
X549595Y296654D02*
X549595Y302654D01*
X551586Y306654D01*
X553577Y306654D01*
X555568Y302654D01*
X555568Y296654D01*
X549595Y299654D02*
X555568Y299654D01*
X559550Y304654D02*
X561542Y306654D01*
X561542Y296654D01*
X558555Y296654D02*
X564528Y296654D01*
X610860Y380430D02*
X501660Y380430D01*
X501660Y325690D02*
X610860Y325690D01*
X501660Y380430D02*
X501660Y325690D01*
X610860Y325690D02*
X610860Y380430D01*
X783136Y411339D02*
X781625Y408517D01*
X781625Y405694D01*
X783136Y402872D01*
X789184Y402872D01*
X788428Y397228D02*
X789184Y395817D01*
X789184Y392994D01*
X787672Y390172D01*
X786160Y390172D01*
X785404Y391583D01*
X784648Y390172D01*
X783136Y390172D01*
X781625Y392994D01*
X781625Y395817D01*
X782380Y397228D01*
X785404Y395817D02*
X785404Y391583D01*
X820420Y287020D02*
X820420Y388620D01*
X820420Y394970D02*
X820420Y414020D01*
X795020Y414020D01*
X820420Y390737D02*
X811953Y390737D01*
X818303Y392853D02*
X820420Y390737D01*
X820420Y287020D02*
X795020Y287020D01*
X795020Y414020D01*
X703539Y386744D02*
X703539Y391260D01*
X702269Y393517D01*
X698459Y393517D01*
X697189Y391260D01*
X697189Y386744D01*
X697189Y387873D02*
X703539Y387873D01*
X702269Y396904D02*
X703539Y399162D01*
X703539Y401420D01*
X702269Y403677D01*
X699729Y403677D01*
X698459Y403677D01*
X697189Y401420D01*
X697189Y399162D01*
X698459Y396904D01*
X699729Y396904D01*
X700999Y399162D01*
X700999Y401420D01*
X699729Y403677D01*
X680720Y345440D02*
X680720Y388620D01*
X669290Y402590D01*
X692150Y402590D02*
X680720Y388620D01*
X669290Y389890D02*
X692150Y389890D01*
X692150Y388620D02*
X669290Y388620D01*
X669290Y387350D02*
X692150Y387350D01*
X669290Y402590D02*
X692150Y402590D01*
X423394Y400191D02*
X415834Y400191D01*
X415834Y405836D01*
X417346Y408658D01*
X418102Y408658D01*
X419614Y405836D01*
X419614Y400191D01*
X419614Y401602D02*
X423394Y408658D01*
X416590Y414302D02*
X415834Y415713D01*
X415834Y418536D01*
X417346Y421358D01*
X418858Y421358D01*
X419614Y419947D01*
X420370Y421358D01*
X421882Y421358D01*
X423394Y418536D01*
X423394Y415713D01*
X422638Y414302D01*
X419614Y415713D02*
X419614Y419947D01*
X377809Y451452D02*
X374202Y454122D01*
X370376Y456466D01*
X366361Y458468D01*
X362186Y460113D01*
X357883Y461387D01*
X353486Y462282D01*
X349028Y462790D01*
X344542Y462907D01*
X340064Y462633D01*
X335626Y461970D01*
X331263Y460922D01*
X327007Y459499D01*
X322892Y457709D01*
X318949Y455568D01*
X315207Y453092D01*
X311696Y450298D01*
X308441Y447210D01*
X305468Y443849D01*
X302798Y440242D01*
X300454Y436416D01*
X298452Y432401D01*
X296807Y428226D01*
X295533Y423923D01*
X294638Y419526D01*
X294130Y415068D01*
X294013Y410582D01*
X294287Y406104D01*
X294950Y401666D01*
X295998Y397303D01*
X297421Y393047D01*
X299211Y388932D01*
X301352Y384989D01*
X303828Y381247D01*
X306622Y377736D01*
X309710Y374481D01*
X313071Y371508D01*
X316678Y368838D01*
X320504Y366494D01*
X324519Y364492D01*
X328694Y362847D01*
X332997Y361573D01*
X337394Y360678D01*
X341852Y360170D01*
X346338Y360053D01*
X350816Y360327D01*
X355254Y360990D01*
X359617Y362038D01*
X363873Y363461D01*
X367988Y365251D01*
X371931Y367392D01*
X375673Y369868D01*
X377809Y371508D01*
X393700Y450850D02*
X393700Y372110D01*
X345440Y430530D02*
X343780Y430457D01*
X342132Y430241D01*
X340509Y429881D01*
X338925Y429381D01*
X337389Y428745D01*
X335915Y427978D01*
X334513Y427085D01*
X333195Y426073D01*
X331970Y424950D01*
X330847Y423725D01*
X329835Y422407D01*
X328942Y421005D01*
X328175Y419531D01*
X327539Y417995D01*
X327039Y416411D01*
X326679Y414788D01*
X326463Y413140D01*
X326390Y411480D01*
X326463Y409820D01*
X326679Y408172D01*
X327039Y406549D01*
X327539Y404965D01*
X328175Y403429D01*
X328942Y401955D01*
X329835Y400553D01*
X330847Y399235D01*
X331970Y398010D01*
X333195Y396887D01*
X334513Y395875D01*
X335915Y394982D01*
X337389Y394215D01*
X338925Y393579D01*
X340509Y393079D01*
X342132Y392719D01*
X343780Y392503D01*
X345440Y392430D01*
X347100Y392503D01*
X348748Y392719D01*
X350371Y393079D01*
X351955Y393579D01*
X353491Y394215D01*
X354965Y394982D01*
X356367Y395875D01*
X357685Y396887D01*
X358910Y398010D01*
X360033Y399235D01*
X361045Y400553D01*
X361938Y401955D01*
X362705Y403429D01*
X363341Y404965D01*
X363841Y406549D01*
X364201Y408172D01*
X364417Y409820D01*
X364490Y411480D01*
X364417Y413140D01*
X364201Y414788D01*
X363841Y416411D01*
X363341Y417995D01*
X362705Y419531D01*
X361938Y421005D01*
X361045Y422407D01*
X360033Y423725D01*
X358910Y424950D01*
X357685Y426073D01*
X356367Y427085D01*
X354965Y427978D01*
X353491Y428745D01*
X351955Y429381D01*
X350371Y429881D01*
X348748Y430241D01*
X347100Y430457D01*
X345440Y430530D01*
X355600Y394970D02*
X328930Y421640D01*
X378460Y372110D02*
X393700Y372110D01*
X361950Y401320D02*
X335280Y427990D01*
X335280Y407670D02*
X339090Y411480D01*
X341630Y421640D02*
X349250Y421640D01*
X345440Y417830D01*
X335280Y415290D02*
X335280Y407670D01*
X378460Y450850D02*
X393700Y450850D01*
X34431Y404676D02*
X37253Y403165D01*
X40076Y403165D01*
X42898Y404676D01*
X42898Y410724D01*
X48542Y409212D02*
X51364Y410724D01*
X51364Y403165D01*
X47131Y403165D02*
X55598Y403165D01*
X31750Y414020D02*
X31750Y490220D01*
X146050Y490220D02*
X146050Y414020D01*
X38100Y477520D02*
X38100Y471170D01*
X76200Y477520D02*
X76200Y471170D01*
X63500Y477520D02*
X63500Y471170D01*
X139700Y477520D02*
X139700Y471170D01*
X101600Y477520D02*
X101600Y471170D01*
X114300Y477520D02*
X114300Y471170D01*
X146050Y414020D02*
X31750Y414020D01*
X31750Y420370D02*
X146050Y420370D01*
X31750Y439420D02*
X146050Y439420D01*
X31750Y464820D02*
X146050Y464820D01*
X146050Y471170D02*
X31750Y471170D01*
X48683Y435187D02*
X50800Y437303D01*
X50800Y428837D01*
X88900Y433070D02*
X89084Y433078D01*
X89268Y433102D01*
X89448Y433142D01*
X89624Y433198D01*
X89795Y433269D01*
X89958Y433354D01*
X90114Y433453D01*
X90261Y433566D01*
X90397Y433690D01*
X90521Y433826D01*
X90634Y433973D01*
X90733Y434129D01*
X90818Y434292D01*
X90889Y434463D01*
X90945Y434639D01*
X90985Y434819D01*
X91009Y435003D01*
X91017Y435187D01*
X91009Y435371D01*
X90985Y435555D01*
X90945Y435735D01*
X90889Y435911D01*
X90818Y436082D01*
X90733Y436245D01*
X90634Y436401D01*
X90521Y436548D01*
X90397Y436684D01*
X90261Y436808D01*
X90114Y436921D01*
X89958Y437020D01*
X89795Y437105D01*
X89624Y437176D01*
X89448Y437232D01*
X89268Y437272D01*
X89084Y437296D01*
X88900Y437304D01*
X88716Y437296D01*
X88532Y437272D01*
X88352Y437232D01*
X88176Y437176D01*
X88005Y437105D01*
X87842Y437020D01*
X87686Y436921D01*
X87539Y436808D01*
X87403Y436684D01*
X87279Y436548D01*
X87166Y436401D01*
X87067Y436245D01*
X86982Y436082D01*
X86911Y435911D01*
X86855Y435735D01*
X86815Y435555D01*
X86791Y435371D01*
X86783Y435187D01*
X91017Y428837D02*
X86783Y428837D01*
X88900Y433070D02*
X88716Y433062D01*
X88532Y433038D01*
X88352Y432998D01*
X88176Y432942D01*
X88005Y432871D01*
X87842Y432786D01*
X87686Y432687D01*
X87539Y432574D01*
X87403Y432450D01*
X87279Y432314D01*
X87166Y432167D01*
X87067Y432011D01*
X86982Y431848D01*
X86911Y431677D01*
X86855Y431501D01*
X86815Y431321D01*
X86791Y431137D01*
X86783Y430953D01*
X86783Y428837D02*
X86783Y430953D01*
X127000Y433070D02*
X127184Y433078D01*
X127368Y433102D01*
X127548Y433142D01*
X127724Y433198D01*
X127895Y433269D01*
X128058Y433354D01*
X128214Y433453D01*
X128361Y433566D01*
X128497Y433690D01*
X128621Y433826D01*
X128734Y433973D01*
X128833Y434129D01*
X128918Y434292D01*
X128989Y434463D01*
X129045Y434639D01*
X129085Y434819D01*
X129109Y435003D01*
X129117Y435187D01*
X129109Y435371D01*
X129085Y435555D01*
X129045Y435735D01*
X128989Y435911D01*
X128918Y436082D01*
X128833Y436245D01*
X128734Y436401D01*
X128621Y436548D01*
X128497Y436684D01*
X128361Y436808D01*
X128214Y436921D01*
X128058Y437020D01*
X127895Y437105D01*
X127724Y437176D01*
X127548Y437232D01*
X127368Y437272D01*
X127184Y437296D01*
X127000Y437304D01*
X126816Y437296D01*
X126632Y437272D01*
X126452Y437232D01*
X126276Y437176D01*
X126105Y437105D01*
X125942Y437020D01*
X125786Y436921D01*
X125639Y436808D01*
X125503Y436684D01*
X125379Y436548D01*
X125266Y436401D01*
X125167Y436245D01*
X125082Y436082D01*
X125011Y435911D01*
X124955Y435735D01*
X124915Y435555D01*
X124891Y435371D01*
X124883Y435187D01*
X124883Y430953D02*
X124891Y430769D01*
X124915Y430585D01*
X124955Y430405D01*
X125011Y430229D01*
X125082Y430058D01*
X125167Y429895D01*
X125266Y429739D01*
X125379Y429592D01*
X125503Y429456D01*
X125639Y429332D01*
X125786Y429219D01*
X125942Y429120D01*
X126105Y429035D01*
X126276Y428964D01*
X126452Y428908D01*
X126632Y428868D01*
X126816Y428844D01*
X127000Y428836D01*
X127184Y428844D01*
X127368Y428868D01*
X127548Y428908D01*
X127724Y428964D01*
X127895Y429035D01*
X128058Y429120D01*
X128214Y429219D01*
X128361Y429332D01*
X128497Y429456D01*
X128621Y429592D01*
X128734Y429739D01*
X128833Y429895D01*
X128918Y430058D01*
X128989Y430229D01*
X129045Y430405D01*
X129085Y430585D01*
X129109Y430769D01*
X129117Y430953D01*
X129109Y431137D01*
X129085Y431321D01*
X129045Y431501D01*
X128989Y431677D01*
X128918Y431848D01*
X128833Y432011D01*
X128734Y432167D01*
X128621Y432314D01*
X128497Y432450D01*
X128361Y432574D01*
X128214Y432687D01*
X128058Y432786D01*
X127895Y432871D01*
X127724Y432942D01*
X127548Y432998D01*
X127368Y433038D01*
X127184Y433062D01*
X127000Y433070D01*
X127000Y433070D01*
X31750Y490220D02*
X146050Y490220D01*
X107950Y490220D02*
X114300Y477520D01*
X69850Y490220D02*
X63500Y477520D01*
X69850Y490220D02*
X76200Y477520D01*
X31750Y490220D02*
X38100Y477520D01*
X107950Y490220D02*
X101600Y477520D01*
X146050Y490220D02*
X139700Y477520D01*
X834844Y445911D02*
X836355Y448733D01*
X836355Y451556D01*
X834844Y454378D01*
X828796Y454378D01*
X833332Y467078D02*
X833332Y458611D01*
X828796Y465667D01*
X836355Y465667D01*
X836355Y464256D02*
X836355Y467078D01*
X825500Y443230D02*
X749300Y443230D01*
X749300Y557530D02*
X825500Y557530D01*
X762000Y449580D02*
X768350Y449580D01*
X762000Y487680D02*
X768350Y487680D01*
X762000Y474980D02*
X768350Y474980D01*
X762000Y551180D02*
X768350Y551180D01*
X762000Y513080D02*
X768350Y513080D01*
X762000Y525780D02*
X768350Y525780D01*
X825500Y557530D02*
X825500Y443230D01*
X819150Y443230D02*
X819150Y557530D01*
X800100Y443230D02*
X800100Y557530D01*
X774700Y443230D02*
X774700Y557530D01*
X768350Y557530D02*
X768350Y443230D01*
X804333Y460163D02*
X802217Y462280D01*
X810683Y462280D01*
X806450Y500380D02*
X806442Y500564D01*
X806418Y500748D01*
X806378Y500928D01*
X806322Y501104D01*
X806251Y501275D01*
X806166Y501438D01*
X806067Y501594D01*
X805954Y501741D01*
X805830Y501877D01*
X805694Y502001D01*
X805547Y502114D01*
X805391Y502213D01*
X805228Y502298D01*
X805057Y502369D01*
X804881Y502425D01*
X804701Y502465D01*
X804517Y502489D01*
X804333Y502497D01*
X804149Y502489D01*
X803965Y502465D01*
X803785Y502425D01*
X803609Y502369D01*
X803438Y502298D01*
X803275Y502213D01*
X803119Y502114D01*
X802972Y502001D01*
X802836Y501877D01*
X802712Y501741D01*
X802599Y501594D01*
X802500Y501438D01*
X802415Y501275D01*
X802344Y501104D01*
X802288Y500928D01*
X802248Y500748D01*
X802224Y500564D01*
X802216Y500380D01*
X802224Y500196D01*
X802248Y500012D01*
X802288Y499832D01*
X802344Y499656D01*
X802415Y499485D01*
X802500Y499322D01*
X802599Y499166D01*
X802712Y499019D01*
X802836Y498883D01*
X802972Y498759D01*
X803119Y498646D01*
X803275Y498547D01*
X803438Y498462D01*
X803609Y498391D01*
X803785Y498335D01*
X803965Y498295D01*
X804149Y498271D01*
X804333Y498263D01*
X810683Y502497D02*
X810683Y498263D01*
X806450Y500380D02*
X806458Y500196D01*
X806482Y500012D01*
X806522Y499832D01*
X806578Y499656D01*
X806649Y499485D01*
X806734Y499322D01*
X806833Y499166D01*
X806946Y499019D01*
X807070Y498883D01*
X807206Y498759D01*
X807353Y498646D01*
X807509Y498547D01*
X807672Y498462D01*
X807843Y498391D01*
X808019Y498335D01*
X808199Y498295D01*
X808383Y498271D01*
X808567Y498263D01*
X810683Y498263D02*
X808567Y498263D01*
X806450Y538480D02*
X806442Y538664D01*
X806418Y538848D01*
X806378Y539028D01*
X806322Y539204D01*
X806251Y539375D01*
X806166Y539538D01*
X806067Y539694D01*
X805954Y539841D01*
X805830Y539977D01*
X805694Y540101D01*
X805547Y540214D01*
X805391Y540313D01*
X805228Y540398D01*
X805057Y540469D01*
X804881Y540525D01*
X804701Y540565D01*
X804517Y540589D01*
X804333Y540597D01*
X804149Y540589D01*
X803965Y540565D01*
X803785Y540525D01*
X803609Y540469D01*
X803438Y540398D01*
X803275Y540313D01*
X803119Y540214D01*
X802972Y540101D01*
X802836Y539977D01*
X802712Y539841D01*
X802599Y539694D01*
X802500Y539538D01*
X802415Y539375D01*
X802344Y539204D01*
X802288Y539028D01*
X802248Y538848D01*
X802224Y538664D01*
X802216Y538480D01*
X802224Y538296D01*
X802248Y538112D01*
X802288Y537932D01*
X802344Y537756D01*
X802415Y537585D01*
X802500Y537422D01*
X802599Y537266D01*
X802712Y537119D01*
X802836Y536983D01*
X802972Y536859D01*
X803119Y536746D01*
X803275Y536647D01*
X803438Y536562D01*
X803609Y536491D01*
X803785Y536435D01*
X803965Y536395D01*
X804149Y536371D01*
X804333Y536363D01*
X808567Y536363D02*
X808751Y536371D01*
X808935Y536395D01*
X809115Y536435D01*
X809291Y536491D01*
X809462Y536562D01*
X809625Y536647D01*
X809781Y536746D01*
X809928Y536859D01*
X810064Y536983D01*
X810188Y537119D01*
X810301Y537266D01*
X810400Y537422D01*
X810485Y537585D01*
X810556Y537756D01*
X810612Y537932D01*
X810652Y538112D01*
X810676Y538296D01*
X810684Y538480D01*
X810676Y538664D01*
X810652Y538848D01*
X810612Y539028D01*
X810556Y539204D01*
X810485Y539375D01*
X810400Y539538D01*
X810301Y539694D01*
X810188Y539841D01*
X810064Y539977D01*
X809928Y540101D01*
X809781Y540214D01*
X809625Y540313D01*
X809462Y540398D01*
X809291Y540469D01*
X809115Y540525D01*
X808935Y540565D01*
X808751Y540589D01*
X808567Y540597D01*
X808383Y540589D01*
X808199Y540565D01*
X808019Y540525D01*
X807843Y540469D01*
X807672Y540398D01*
X807509Y540313D01*
X807353Y540214D01*
X807206Y540101D01*
X807070Y539977D01*
X806946Y539841D01*
X806833Y539694D01*
X806734Y539538D01*
X806649Y539375D01*
X806578Y539204D01*
X806522Y539028D01*
X806482Y538848D01*
X806458Y538664D01*
X806450Y538480D01*
X806450Y538480D01*
X749300Y443230D02*
X749300Y557530D01*
X749300Y519430D02*
X762000Y525780D01*
X749300Y481330D02*
X762000Y474980D01*
X749300Y481330D02*
X762000Y487680D01*
X749300Y443230D02*
X762000Y449580D01*
X749300Y519430D02*
X762000Y513080D01*
X749300Y557530D02*
X762000Y551180D01*
X704669Y206708D02*
X702678Y204708D01*
X700687Y204708D01*
X698696Y206708D01*
X698696Y212708D01*
X700687Y214708D01*
X702678Y214708D01*
X704669Y212708D01*
X710642Y204708D02*
X710642Y209708D01*
X713629Y212708D01*
X713629Y214708D01*
X707656Y214708D01*
X707656Y212708D01*
X676460Y255000D02*
G75*
D01*
G02X676460Y255000I31500J0*
G01*
X808849Y211576D02*
X808849Y219135D01*
X800382Y219135D01*
X787682Y219135D02*
X796149Y219135D01*
X796149Y215356D01*
X796149Y211576D01*
X787682Y211576D01*
X796149Y215356D02*
X790504Y215356D01*
X783449Y219135D02*
X777804Y219135D01*
X774982Y217624D01*
X774982Y213088D01*
X777804Y211576D01*
X783449Y211576D01*
X782038Y211576D02*
X782038Y219135D01*
X769338Y213088D02*
X766516Y211576D01*
X766516Y219135D01*
X770749Y219135D02*
X762282Y219135D01*
X813338Y120078D02*
X816721Y122491D01*
X819880Y125189D01*
X822792Y128153D01*
X825435Y131359D01*
X827788Y134783D01*
X829834Y138399D01*
X831557Y142179D01*
X832944Y146096D01*
X833984Y150118D01*
X834670Y154216D01*
X834996Y158358D01*
X834960Y162512D01*
X834562Y166648D01*
X833804Y170733D01*
X832694Y174737D01*
X831239Y178629D01*
X829450Y182379D01*
X827342Y185958D01*
X824929Y189341D01*
X822231Y192500D01*
X819267Y195412D01*
X816061Y198055D01*
X812637Y200408D01*
X809021Y202454D01*
X805241Y204177D01*
X801324Y205564D01*
X797302Y206604D01*
X793204Y207290D01*
X789062Y207616D01*
X784908Y207580D01*
X780772Y207182D01*
X776687Y206424D01*
X772683Y205314D01*
X768791Y203859D01*
X765041Y202070D01*
X761462Y199962D01*
X758079Y197549D01*
X754920Y194851D01*
X752008Y191887D01*
X749365Y188681D01*
X747012Y185257D01*
X744966Y181641D01*
X743243Y177861D01*
X741856Y173944D01*
X740816Y169922D01*
X740130Y165824D01*
X739804Y161682D01*
X739840Y157528D01*
X740238Y153392D01*
X740996Y149307D01*
X742106Y145303D01*
X743561Y141411D01*
X745350Y137661D01*
X747458Y134082D01*
X749871Y130699D01*
X752569Y127540D01*
X755533Y124628D01*
X758739Y121985D01*
X761462Y120078D01*
X787400Y200237D02*
X783895Y200084D01*
X780416Y199626D01*
X776991Y198866D01*
X773645Y197811D01*
X770404Y196469D01*
X767292Y194849D01*
X764333Y192964D01*
X761549Y190828D01*
X758963Y188457D01*
X756592Y185871D01*
X754456Y183087D01*
X752571Y180128D01*
X750951Y177016D01*
X749609Y173775D01*
X748554Y170429D01*
X747794Y167004D01*
X747336Y163525D01*
X747183Y160020D01*
X747336Y156515D01*
X747794Y153036D01*
X748554Y149611D01*
X749609Y146265D01*
X750951Y143024D01*
X752571Y139912D01*
X754456Y136953D01*
X756592Y134169D01*
X758963Y131583D01*
X761549Y129212D01*
X764333Y127076D01*
X767292Y125191D01*
X770404Y123571D01*
X773645Y122229D01*
X776991Y121174D01*
X780416Y120414D01*
X783895Y119956D01*
X787400Y119803D01*
X790905Y119956D01*
X794384Y120414D01*
X797809Y121174D01*
X801155Y122229D01*
X804396Y123571D01*
X807508Y125191D01*
X810467Y127076D01*
X813251Y129212D01*
X815837Y131583D01*
X818208Y134169D01*
X820344Y136953D01*
X822229Y139912D01*
X823849Y143024D01*
X825191Y146265D01*
X826246Y149611D01*
X827006Y153036D01*
X827464Y156515D01*
X827617Y160020D01*
X827464Y163525D01*
X827006Y167004D01*
X826246Y170429D01*
X825191Y173775D01*
X823849Y177016D01*
X822229Y180128D01*
X820344Y183087D01*
X818208Y185871D01*
X815837Y188457D01*
X813251Y190828D01*
X810467Y192964D01*
X807508Y194849D01*
X804396Y196469D01*
X801155Y197811D01*
X797809Y198866D01*
X794384Y199626D01*
X790905Y200084D01*
X787400Y200237D01*
X806450Y170603D02*
X800100Y170603D01*
X800100Y174837D02*
X799916Y174829D01*
X799732Y174805D01*
X799552Y174765D01*
X799376Y174709D01*
X799205Y174638D01*
X799042Y174553D01*
X798886Y174454D01*
X798739Y174341D01*
X798603Y174217D01*
X798479Y174081D01*
X798366Y173934D01*
X798267Y173778D01*
X798182Y173615D01*
X798111Y173444D01*
X798055Y173268D01*
X798015Y173088D01*
X797991Y172904D01*
X797983Y172720D01*
X797991Y172536D01*
X798015Y172352D01*
X798055Y172172D01*
X798111Y171996D01*
X798182Y171825D01*
X798267Y171662D01*
X798366Y171506D01*
X798479Y171359D01*
X798603Y171223D01*
X798739Y171099D01*
X798886Y170986D01*
X799042Y170887D01*
X799205Y170802D01*
X799376Y170731D01*
X799552Y170675D01*
X799732Y170635D01*
X799916Y170611D01*
X800100Y170603D01*
X802217Y170603D02*
X802217Y174837D01*
X762000Y119803D02*
X812800Y119803D01*
X804333Y145203D02*
X804517Y145211D01*
X804701Y145235D01*
X804881Y145275D01*
X805057Y145331D01*
X805228Y145402D01*
X805391Y145487D01*
X805547Y145586D01*
X805694Y145699D01*
X805830Y145823D01*
X805954Y145959D01*
X806067Y146106D01*
X806166Y146262D01*
X806251Y146425D01*
X806322Y146596D01*
X806378Y146772D01*
X806418Y146952D01*
X806442Y147136D01*
X806450Y147320D01*
X806442Y147504D01*
X806418Y147688D01*
X806378Y147868D01*
X806322Y148044D01*
X806251Y148215D01*
X806166Y148378D01*
X806067Y148534D01*
X805954Y148681D01*
X805830Y148817D01*
X805694Y148941D01*
X805547Y149054D01*
X805391Y149153D01*
X805228Y149238D01*
X805057Y149309D01*
X804881Y149365D01*
X804701Y149405D01*
X804517Y149429D01*
X804333Y149437D01*
X804333Y149437D01*
X800100Y149437D02*
X799916Y149429D01*
X799732Y149405D01*
X799552Y149365D01*
X799376Y149309D01*
X799205Y149238D01*
X799042Y149153D01*
X798886Y149054D01*
X798739Y148941D01*
X798603Y148817D01*
X798479Y148681D01*
X798366Y148534D01*
X798267Y148378D01*
X798182Y148215D01*
X798111Y148044D01*
X798055Y147868D01*
X798015Y147688D01*
X797991Y147504D01*
X797983Y147320D01*
X797991Y147136D01*
X798015Y146952D01*
X798055Y146772D01*
X798111Y146596D01*
X798182Y146425D01*
X798267Y146262D01*
X798366Y146106D01*
X798479Y145959D01*
X798603Y145823D01*
X798739Y145699D01*
X798886Y145586D01*
X799042Y145487D01*
X799205Y145402D01*
X799376Y145331D01*
X799552Y145275D01*
X799732Y145235D01*
X799916Y145211D01*
X800100Y145203D01*
X804333Y145203D02*
X800100Y145203D01*
X806450Y174837D02*
X800100Y174837D01*
X564122Y470464D02*
X565634Y467642D01*
X565634Y464820D01*
X564122Y461998D01*
X559586Y461998D01*
X558074Y464820D01*
X558074Y467642D01*
X559586Y470464D01*
X559586Y474698D02*
X558074Y477520D01*
X558074Y480342D01*
X559586Y483164D01*
X560342Y483164D01*
X565634Y474698D01*
X565634Y483164D01*
X564878Y483164D01*
X577427Y460587D02*
X577491Y459111D01*
X577684Y457647D01*
X578004Y456204D01*
X578448Y454795D01*
X579013Y453431D01*
X579695Y452120D01*
X580489Y450874D01*
X581388Y449702D01*
X582386Y448613D01*
X583475Y447615D01*
X584647Y446716D01*
X585893Y445922D01*
X602672Y445592D02*
X603947Y446373D01*
X605150Y447263D01*
X606270Y448254D01*
X607299Y449339D01*
X608231Y450509D01*
X609056Y451757D01*
X609770Y453071D01*
X610366Y454443D01*
X610841Y455861D01*
X611190Y457316D01*
X611411Y458795D01*
X611502Y460288D01*
X611505Y460587D01*
X594360Y472440D02*
X594360Y468630D01*
X601980Y474980D02*
X586740Y474980D01*
X586740Y473710D02*
X601980Y473710D01*
X601980Y472440D02*
X586740Y472440D01*
X601980Y481330D02*
X586740Y481330D01*
X586740Y480060D02*
X601980Y480060D01*
X586740Y482600D02*
X601980Y482600D01*
X594360Y482600D02*
X594360Y486410D01*
X611293Y460587D02*
X611293Y494453D01*
X611229Y495929D01*
X611036Y497393D01*
X610716Y498836D01*
X610272Y500245D01*
X609707Y501609D01*
X609025Y502920D01*
X608231Y504166D01*
X607332Y505338D01*
X606334Y506427D01*
X605245Y507425D01*
X604073Y508324D01*
X602827Y509118D01*
X577427Y460587D02*
X577427Y494453D01*
X586048Y509448D02*
X584773Y508667D01*
X583570Y507777D01*
X582450Y506786D01*
X581421Y505701D01*
X580489Y504531D01*
X579664Y503283D01*
X578950Y501969D01*
X578354Y500597D01*
X577879Y499179D01*
X577530Y497724D01*
X577309Y496245D01*
X577218Y494752D01*
X577215Y494453D01*
X768470Y429260D02*
X768470Y350520D01*
G75*
D01*
G03X779780Y339210I11310J0*
G01*
G75*
D01*
G03X791090Y350520I0J11310*
G01*
X791090Y429260D01*
G74*
D01*
G03X779780Y440570I11310J0*
G01*
G75*
D01*
G03X768470Y429260I0J-11310*
G01*
X740530Y411480D02*
X740530Y325120D01*
G75*
D01*
G03X751840Y313810I11310J0*
G01*
G75*
D01*
G03X763150Y325120I0J11310*
G01*
X763150Y411480D01*
G74*
D01*
G03X751840Y422790I11310J0*
G01*
G75*
D01*
G03X740530Y411480I0J-11310*
G01*
X151250Y327660D02*
G75*
D01*
G03X162560Y316350I11310J0*
G01*
X276860Y316350D01*
G75*
D01*
G03X288170Y327660I0J11310*
G01*
G74*
D01*
G03X276860Y338970I11310J0*
G01*
X162560Y338970D01*
G75*
D01*
G03X151250Y327660I0J-11310*
G01*
X557650Y419100D02*
G75*
D01*
G03X568960Y407790I11310J0*
G01*
X624840Y407790D01*
G75*
D01*
G03X636150Y419100I0J11310*
G01*
G74*
D01*
G03X624840Y430410I11310J0*
G01*
X568960Y430410D01*
G75*
D01*
G03X557650Y419100I0J-11310*
G01*
X692281Y479145D02*
X689458Y480656D01*
X686636Y480656D01*
X683814Y479145D01*
X683814Y474609D01*
X686636Y473097D01*
X689458Y473097D01*
X692281Y474609D01*
X692281Y479145D01*
X686636Y479145D02*
X683814Y480656D01*
X678170Y474609D02*
X675347Y473097D01*
X675347Y480656D01*
X679581Y480656D02*
X671114Y480656D01*
X643130Y443670D02*
X643786Y441304D01*
X644646Y439003D01*
X645704Y436787D01*
X646950Y434671D01*
X648376Y432671D01*
X649971Y430804D01*
X651723Y429082D01*
X653618Y427520D01*
X655642Y426129D01*
X657779Y424920D01*
X660014Y423901D01*
X662329Y423081D01*
X664707Y422467D01*
X667129Y422061D01*
X669578Y421868D01*
X672033Y421890D01*
X674478Y422125D01*
X676893Y422573D01*
X679259Y423229D01*
X681560Y424089D01*
X683776Y425147D01*
X685892Y426393D01*
X687892Y427819D01*
X689759Y429414D01*
X691481Y431166D01*
X693043Y433061D01*
X694434Y435085D01*
X695643Y437222D01*
X696662Y439457D01*
X697482Y441772D01*
X697990Y443670D01*
X649393Y466937D02*
X691727Y466937D01*
X647277Y437303D02*
X647277Y441537D01*
X655743Y441537D02*
X655743Y437303D01*
X647277Y441537D02*
X655743Y441537D01*
X651510Y441537D02*
X651510Y439420D01*
X649393Y466937D02*
X645160Y460587D01*
X691727Y437303D02*
X691911Y437311D01*
X692095Y437335D01*
X692275Y437375D01*
X692451Y437431D01*
X692622Y437502D01*
X692785Y437587D01*
X692941Y437686D01*
X693088Y437799D01*
X693224Y437923D01*
X693348Y438059D01*
X693461Y438206D01*
X693560Y438362D01*
X693645Y438525D01*
X693716Y438696D01*
X693772Y438872D01*
X693812Y439052D01*
X693836Y439236D01*
X693844Y439420D01*
X693836Y439604D01*
X693812Y439788D01*
X693772Y439968D01*
X693716Y440144D01*
X693645Y440315D01*
X693560Y440478D01*
X693461Y440634D01*
X693348Y440781D01*
X693224Y440917D01*
X693088Y441041D01*
X692941Y441154D01*
X692785Y441253D01*
X692622Y441338D01*
X692451Y441409D01*
X692275Y441465D01*
X692095Y441505D01*
X691911Y441529D01*
X691727Y441537D01*
X687493Y441537D02*
X687309Y441529D01*
X687125Y441505D01*
X686945Y441465D01*
X686769Y441409D01*
X686598Y441338D01*
X686435Y441253D01*
X686279Y441154D01*
X686132Y441041D01*
X685996Y440917D01*
X685872Y440781D01*
X685759Y440634D01*
X685660Y440478D01*
X685575Y440315D01*
X685504Y440144D01*
X685448Y439968D01*
X685408Y439788D01*
X685384Y439604D01*
X685376Y439420D01*
X685384Y439236D01*
X685408Y439052D01*
X685448Y438872D01*
X685504Y438696D01*
X685575Y438525D01*
X685660Y438362D01*
X685759Y438206D01*
X685872Y438059D01*
X685996Y437923D01*
X686132Y437799D01*
X686279Y437686D01*
X686435Y437587D01*
X686598Y437502D01*
X686769Y437431D01*
X686945Y437375D01*
X687125Y437335D01*
X687309Y437311D01*
X687493Y437303D01*
X666326Y439420D02*
X666334Y439236D01*
X666358Y439052D01*
X666398Y438872D01*
X666454Y438696D01*
X666525Y438525D01*
X666610Y438362D01*
X666709Y438206D01*
X666822Y438059D01*
X666946Y437923D01*
X667082Y437799D01*
X667229Y437686D01*
X667385Y437587D01*
X667548Y437502D01*
X667719Y437431D01*
X667895Y437375D01*
X668075Y437335D01*
X668259Y437311D01*
X668443Y437303D01*
X668627Y437311D01*
X668811Y437335D01*
X668991Y437375D01*
X669167Y437431D01*
X669338Y437502D01*
X669501Y437587D01*
X669657Y437686D01*
X669804Y437799D01*
X669940Y437923D01*
X670064Y438059D01*
X670177Y438206D01*
X670276Y438362D01*
X670361Y438525D01*
X670432Y438696D01*
X670488Y438872D01*
X670528Y439052D01*
X670552Y439236D01*
X670560Y439420D01*
X670568Y439236D01*
X670592Y439052D01*
X670632Y438872D01*
X670688Y438696D01*
X670759Y438525D01*
X670844Y438362D01*
X670943Y438206D01*
X671056Y438059D01*
X671180Y437923D01*
X671316Y437799D01*
X671463Y437686D01*
X671619Y437587D01*
X671782Y437502D01*
X671953Y437431D01*
X672129Y437375D01*
X672309Y437335D01*
X672493Y437311D01*
X672677Y437303D01*
X672861Y437311D01*
X673045Y437335D01*
X673225Y437375D01*
X673401Y437431D01*
X673572Y437502D01*
X673735Y437587D01*
X673891Y437686D01*
X674038Y437799D01*
X674174Y437923D01*
X674298Y438059D01*
X674411Y438206D01*
X674510Y438362D01*
X674595Y438525D01*
X674666Y438696D01*
X674722Y438872D01*
X674762Y439052D01*
X674786Y439236D01*
X674794Y439420D01*
X666327Y441537D02*
X674793Y441537D01*
X666327Y441537D02*
X666327Y439420D01*
X670560Y441537D02*
X670560Y439420D01*
X687493Y441537D02*
X691727Y441537D01*
X674793Y441537D02*
X674793Y439420D01*
X691727Y466937D02*
X695960Y460587D01*
X402710Y543560D02*
X402710Y474980D01*
G75*
D01*
G03X414020Y463670I11310J0*
G01*
G75*
D01*
G03X425330Y474980I0J11310*
G01*
X425330Y543560D01*
G74*
D01*
G03X414020Y554870I11310J0*
G01*
G75*
D01*
G03X402710Y543560I0J-11310*
G01*
X255390Y528320D02*
X255390Y474980D01*
G75*
D01*
G03X266700Y463670I11310J0*
G01*
G75*
D01*
G03X278010Y474980I0J11310*
G01*
X278010Y528320D01*
G74*
D01*
G03X266700Y539630I11310J0*
G01*
G75*
D01*
G03X255390Y528320I0J-11310*
G01*
G54D12*
G36*
X404511Y281324D02*
X404511Y281324D01*
X406972Y267144D01*
X406972Y281324D01*
X404511Y281324D01*
D02*
G37*
X406972Y267144D01*
X406972Y281324D01*
X404511Y281324D01*
G36*
X406972Y267144D02*
X406972Y267144D01*
X404511Y281324D01*
X404511Y275479D01*
X406972Y267144D01*
D02*
G37*
X404511Y281324D01*
X404511Y275479D01*
X406972Y267144D01*
G36*
X404511Y275479D02*
X404511Y275479D01*
X404511Y272989D01*
X406972Y267144D01*
X404511Y275479D01*
D02*
G37*
X404511Y272989D01*
X406972Y267144D01*
X404511Y275479D01*
G36*
X404511Y272989D02*
X404511Y272989D01*
X404511Y275479D01*
X398666Y275479D01*
X404511Y272989D01*
D02*
G37*
X404511Y275479D01*
X398666Y275479D01*
X404511Y272989D01*
G36*
X398666Y275479D02*
X398666Y275479D01*
X398666Y272989D01*
X404511Y272989D01*
X398666Y275479D01*
D02*
G37*
X398666Y272989D01*
X404511Y272989D01*
X398666Y275479D01*
G36*
X406972Y272989D02*
X406972Y272989D01*
X412860Y272989D01*
X406972Y275479D01*
X406972Y272989D01*
D02*
G37*
X412860Y272989D01*
X406972Y275479D01*
X406972Y272989D01*
G36*
X406972Y272989D01*
X406972Y281324D01*
X406972Y272989D01*
D02*
G37*
X406972Y281324D01*
X406972Y272989D01*
G36*
X406972Y272989D01*
X406972Y281324D01*
X406972Y267144D01*
X406972Y272989D01*
D02*
G37*
X406972Y281324D01*
X406972Y267144D01*
X406972Y272989D01*
G36*
X406972Y275479D02*
X406972Y275479D01*
X412860Y272989D01*
X412860Y275479D01*
X406972Y275479D01*
D02*
G37*
X412860Y272989D01*
X412860Y275479D01*
X406972Y275479D01*
G36*
X406972Y267144D02*
X406972Y267144D01*
X404511Y272989D01*
X404511Y267144D01*
X406972Y267144D01*
D02*
G37*
X404511Y272989D01*
X404511Y267144D01*
X406972Y267144D01*
G36*
X694629Y241414D02*
X694629Y241414D01*
X697119Y227220D01*
X697119Y241414D01*
X694629Y241414D01*
D02*
G37*
X697119Y227220D01*
X697119Y241414D01*
X694629Y241414D01*
G36*
X697119Y227220D02*
X697119Y227220D01*
X694629Y241414D01*
X694629Y235569D01*
X697119Y227220D01*
D02*
G37*
X694629Y241414D01*
X694629Y235569D01*
X697119Y227220D01*
G36*
X694629Y235569D02*
X694629Y235569D01*
X694629Y233108D01*
X697119Y227220D01*
X694629Y235569D01*
D02*
G37*
X694629Y233108D01*
X697119Y227220D01*
X694629Y235569D01*
G36*
X694629Y233108D02*
X694629Y233108D01*
X694629Y235569D01*
X688784Y235569D01*
X694629Y233108D01*
D02*
G37*
X694629Y235569D01*
X688784Y235569D01*
X694629Y233108D01*
G36*
X688784Y235569D02*
X688784Y235569D01*
X688784Y233108D01*
X694629Y233108D01*
X688784Y235569D01*
D02*
G37*
X688784Y233108D01*
X694629Y233108D01*
X688784Y235569D01*
G36*
X697119Y233108D02*
X697119Y233108D01*
X702964Y233108D01*
X697119Y235569D01*
X697119Y233108D01*
D02*
G37*
X702964Y233108D01*
X697119Y235569D01*
X697119Y233108D01*
G36*
X697119Y233108D01*
X697119Y241414D01*
X697119Y233108D01*
D02*
G37*
X697119Y241414D01*
X697119Y233108D01*
G36*
X697119Y233108D01*
X697119Y241414D01*
X697119Y227220D01*
X697119Y233108D01*
D02*
G37*
X697119Y241414D01*
X697119Y227220D01*
X697119Y233108D01*
G36*
X697119Y235569D02*
X697119Y235569D01*
X702964Y233108D01*
X702964Y235569D01*
X697119Y235569D01*
D02*
G37*
X702964Y233108D01*
X702964Y235569D01*
X697119Y235569D01*
G36*
X697119Y227220D02*
X697119Y227220D01*
X694629Y233108D01*
X694629Y227220D01*
X697119Y227220D01*
D02*
G37*
X694629Y233108D01*
X694629Y227220D01*
X697119Y227220D01*
G54D13*
X607351Y305692D02*
X607351Y295692D01*
X603369Y295692D01*
X601378Y297692D01*
X601378Y298692D01*
X603369Y300692D01*
X607351Y300692D01*
X606356Y300692D02*
X601378Y305692D01*
X592418Y295692D02*
X598391Y295692D01*
X598391Y299692D01*
X594409Y299692D01*
X592418Y301692D01*
X592418Y303692D01*
X594409Y305692D01*
X598391Y305692D01*
X464529Y395348D02*
X464529Y405348D01*
X468511Y405348D01*
X470502Y403348D01*
X470502Y402348D01*
X468511Y400348D01*
X464529Y400348D01*
X465524Y400348D02*
X470502Y395348D01*
X474484Y403348D02*
X476475Y405348D01*
X476475Y395348D01*
X473489Y395348D02*
X479462Y395348D01*
X747652Y388329D02*
X737652Y388329D01*
X737652Y392311D01*
X739652Y394302D01*
X740652Y394302D01*
X742652Y392311D01*
X742652Y388329D01*
X742652Y389324D02*
X747652Y394302D01*
X743652Y403262D02*
X743652Y397289D01*
X737652Y402266D01*
X747652Y402266D01*
X747652Y401271D02*
X747652Y403262D01*
X485431Y554612D02*
X485431Y544612D01*
X481449Y544612D01*
X479458Y546612D01*
X479458Y547612D01*
X481449Y549612D01*
X485431Y549612D01*
X484436Y549612D02*
X479458Y554612D01*
X473485Y554612D02*
X473485Y549612D01*
X470498Y546612D01*
X470498Y544612D01*
X476471Y544612D01*
X476471Y546612D01*
X342609Y502028D02*
X342609Y512028D01*
X346591Y512028D01*
X348582Y510028D01*
X348582Y509028D01*
X346591Y507028D01*
X342609Y507028D01*
X343604Y507028D02*
X348582Y502028D01*
X355551Y502028D02*
X353560Y502028D01*
X351569Y504028D01*
X351569Y506028D01*
X352564Y507028D01*
X351569Y508028D01*
X351569Y510028D01*
X353560Y512028D01*
X355551Y512028D01*
X357542Y510028D01*
X357542Y508028D01*
X356546Y507028D01*
X357542Y506028D01*
X357542Y504028D01*
X355551Y502028D01*
X352564Y507028D02*
X356546Y507028D01*
X139409Y502028D02*
X139409Y512028D01*
X143391Y512028D01*
X145382Y510028D01*
X145382Y509028D01*
X143391Y507028D01*
X139409Y507028D01*
X140404Y507028D02*
X145382Y502028D01*
X153346Y512028D02*
X150360Y512028D01*
X148369Y510028D01*
X148369Y506028D01*
X148369Y504028D01*
X150360Y502028D01*
X152351Y502028D01*
X154342Y504028D01*
X154342Y506028D01*
X152351Y508028D01*
X150360Y508028D01*
X148369Y506028D01*
X811100Y61956D02*
X801100Y61956D01*
X801100Y65938D01*
X803100Y67929D01*
X804100Y67929D01*
X806100Y65938D01*
X806100Y61956D01*
X806100Y62951D02*
X811100Y67929D01*
X809100Y70916D02*
X811100Y72907D01*
X811100Y74898D01*
X809100Y76889D01*
X805100Y76889D01*
X803100Y76889D01*
X801100Y74898D01*
X801100Y72907D01*
X803100Y70916D01*
X805100Y70916D01*
X807100Y72907D01*
X807100Y74898D01*
X805100Y76889D01*
X471600Y161564D02*
X481600Y161564D01*
X481600Y157582D01*
X479600Y155591D01*
X478600Y155591D01*
X476600Y157582D01*
X476600Y161564D01*
X476600Y160569D02*
X471600Y155591D01*
X479600Y152604D02*
X481600Y150613D01*
X481600Y148622D01*
X479600Y146631D01*
X478600Y146631D01*
X471600Y152604D01*
X471600Y146631D01*
X472600Y146631D01*
G54D14*
X615160Y269500D02*
X585160Y269500D01*
X585160Y289100D01*
X615160Y289100D01*
X615160Y269500D01*
X632160Y279400D02*
X615160Y279300D01*
X585160Y279300D02*
X568160Y279400D01*
X456720Y431540D02*
X486720Y431540D01*
X486720Y411940D01*
X456720Y411940D01*
X456720Y431540D01*
X439720Y421640D02*
X456720Y421740D01*
X486720Y421740D02*
X503720Y421640D01*
X711460Y380520D02*
X731060Y380520D01*
X731060Y410520D01*
X711460Y410520D01*
X711460Y380520D01*
X721360Y363520D02*
X721260Y380520D01*
X721260Y410520D02*
X721360Y427520D01*
X493240Y518420D02*
X463240Y518420D01*
X463240Y538020D01*
X493240Y538020D01*
X493240Y518420D01*
X510240Y528320D02*
X493240Y528220D01*
X463240Y528220D02*
X446240Y528320D01*
X334800Y538220D02*
X364800Y538220D01*
X364800Y518620D01*
X334800Y518620D01*
X334800Y538220D01*
X317800Y528320D02*
X334800Y528420D01*
X364800Y528420D02*
X381800Y528320D01*
X131600Y538220D02*
X161600Y538220D01*
X161600Y518620D01*
X131600Y518620D01*
X131600Y538220D01*
X114600Y528320D02*
X131600Y528420D01*
X161600Y528420D02*
X178600Y528320D01*
X777500Y50320D02*
X797100Y50320D01*
X797100Y80320D01*
X777500Y80320D01*
X777500Y50320D01*
X787400Y33320D02*
X787300Y50320D01*
X787300Y80320D02*
X787400Y97320D01*
X502660Y168120D02*
X483060Y168120D01*
X483060Y138120D01*
X502660Y138120D01*
X502660Y168120D01*
X492760Y185120D02*
X492860Y168120D01*
X492860Y138120D02*
X492760Y121120D01*
G54D15*
X187872Y559380D02*
X189324Y560825D01*
X189324Y562270D01*
X187872Y563715D01*
X183518Y563715D01*
X182067Y562270D01*
X182067Y560825D01*
X183518Y559380D01*
X187872Y559380D01*
X187872Y562270D02*
X189324Y563715D01*
X186421Y570217D02*
X186421Y565882D01*
X182067Y569495D01*
X189324Y569495D01*
X189324Y568772D02*
X189324Y570217D01*
X391341Y559380D02*
X392793Y560825D01*
X392793Y562270D01*
X391341Y563715D01*
X386987Y563715D01*
X385536Y562270D01*
X385536Y560825D01*
X386987Y559380D01*
X391341Y559380D01*
X391341Y562270D02*
X392793Y563715D01*
X386261Y566605D02*
X385536Y567327D01*
X385536Y568772D01*
X386987Y570217D01*
X388439Y570217D01*
X389164Y569495D01*
X389890Y570217D01*
X391341Y570217D01*
X392793Y568772D01*
X392793Y567327D01*
X392067Y566605D01*
X389164Y567327D02*
X389164Y569495D01*
X609781Y559380D02*
X611233Y560825D01*
X611233Y562270D01*
X609781Y563715D01*
X605427Y563715D01*
X603976Y562270D01*
X603976Y560825D01*
X605427Y559380D01*
X609781Y559380D01*
X609781Y562270D02*
X611233Y563715D01*
X605427Y565882D02*
X603976Y567327D01*
X603976Y568772D01*
X605427Y570217D01*
X606153Y570217D01*
X611233Y565882D01*
X611233Y570217D01*
X610507Y570217D01*
G54D16*
X75231Y541660D02*
X178231Y541660D01*
X178231Y588660D01*
X75231Y588660D01*
X75231Y541660D01*
X278700Y541660D02*
X381700Y541660D01*
X381700Y588660D01*
X278700Y588660D01*
X278700Y541660D01*
X497140Y541660D02*
X600140Y541660D01*
X600140Y588660D01*
X497140Y588660D01*
X497140Y541660D01*
G54D17*
X-27872Y-45720D02*
X-27872Y31437D01*
X-27872Y-45720D02*
X65339Y-45720D01*
X904240Y-45720D02*
X811029Y-45720D01*
X904240Y-45720D02*
X904240Y31437D01*
X904240Y725851D02*
X904240Y648694D01*
X904240Y725851D02*
X811029Y725851D01*
X-27872Y725851D02*
X65339Y725851D01*
X-27872Y725851D02*
X-27872Y648694D01*
X-77872Y-45720D02*
X-177872Y-45720D01*
X-127872Y-95720D02*
X-127872Y4280D01*
X-165372Y-45720D02*
G75*
D01*
G02X-165372Y-45720I37500J0*
G01*
X954240Y-45720D02*
X1054240Y-45720D01*
X1004240Y-95720D02*
X1004240Y4280D01*
X966740Y-45720D02*
G75*
D01*
G02X966740Y-45720I37500J0*
G01*
X991740Y-45720D02*
G75*
D01*
G02X991740Y-45720I12500J0*
G01*
X-77872Y725851D02*
X-177872Y725851D01*
X-127872Y675851D02*
X-127872Y775851D01*
X-165372Y725851D02*
G75*
D01*
G02X-165372Y725851I37500J0*
G01*
X-152872Y725851D02*
G75*
D01*
G02X-152872Y725851I25000J0*
G01*
X-140372Y725851D02*
G75*
D01*
G02X-140372Y725851I12500J0*
G01*
G54D18*
X505500Y309880D03*
G54D19*
X510620Y335280D03*

M02*
