G04 Generated by Ultiboard 14.1 *
%FSLAX34Y34*%
%MOMM*%

%ADD10C,0.0001*%
%ADD11C,1.3124*%
%ADD12C,1.1006*%
%ADD13C,2.0000*%
%ADD14C,0.8890*%
%ADD15C,0.8000*%
%ADD16C,0.9949*%
%ADD17C,1.3208*%
%ADD18C,1.5000*%


G04 ColorRGB 000000 for the following layer *
%LNDrill-Copper Top-Copper Bottom*%
%LPD*%
G54D11*
X71120Y345440D03*
X71120Y95462D03*
X71120Y245322D03*
X71120Y170392D03*
X396240Y436880D03*
X396240Y386080D03*
X294640Y411480D03*
G54D12*
X142240Y27300D03*
X142240Y128900D03*
X182880Y27300D03*
X182880Y128900D03*
X142240Y306700D03*
X142240Y205100D03*
X182880Y306700D03*
X182880Y205100D03*
X50800Y452120D03*
X787400Y462280D03*
G54D13*
X360680Y74620D03*
X360680Y174620D03*
X624840Y74620D03*
X624840Y174620D03*
G54D14*
X279400Y238760D03*
X228600Y238760D03*
X492760Y255900D03*
X467360Y255900D03*
X518160Y255900D03*
X325120Y335280D03*
X325120Y259080D03*
X441960Y299720D03*
X441960Y350520D03*
X518160Y391160D03*
X543560Y314960D03*
X594360Y314960D03*
X568960Y314960D03*
X594360Y391160D03*
X543560Y391160D03*
X568960Y391160D03*
X518160Y314960D03*
X807720Y299720D03*
X807720Y375920D03*
X807720Y350520D03*
X807720Y325120D03*
X680720Y335280D03*
X680720Y411480D03*
X88900Y452120D03*
X127000Y452120D03*
X787400Y500380D03*
X787400Y538480D03*
X787400Y147320D03*
X787400Y172720D03*
X594360Y452120D03*
X594360Y502920D03*
X645160Y452120D03*
X695960Y452120D03*
X670560Y452120D03*
G54D15*
X386080Y299320D03*
X386080Y274320D03*
X555160Y279400D03*
X645160Y279300D03*
X516720Y421640D03*
X426720Y421740D03*
X695960Y254000D03*
X720960Y254000D03*
X721360Y440520D03*
X721260Y350520D03*
X433240Y528320D03*
X523240Y528220D03*
X394800Y528320D03*
X304800Y528420D03*
X191600Y528320D03*
X101600Y528420D03*
X787400Y110320D03*
X787300Y20320D03*
X492760Y108120D03*
X492860Y198120D03*
G54D16*
X807720Y401320D03*
G54D17*
X152131Y555889D03*
X126731Y555889D03*
X101331Y555889D03*
X355600Y555889D03*
X330200Y555889D03*
X304800Y555889D03*
X574040Y555889D03*
X548640Y555889D03*
X523240Y555889D03*
G54D18*
X779780Y350520D03*
X779780Y429260D03*
X751840Y411480D03*
X751840Y325120D03*
X162560Y327660D03*
X276860Y327660D03*
X568960Y419100D03*
X624840Y419100D03*
X414020Y543560D03*
X414020Y474980D03*
X266700Y474980D03*
X266700Y528320D03*

M02*
