G04 Generated by Ultiboard 14.1 *
%FSLAX34Y34*%
%MOMM*%

%ADD10C,0.0001*%
%ADD11C,0.1270*%
%ADD12C,2.4978*%
%ADD13C,2.1168*%
%ADD14C,3.0000*%
%ADD15R,3.0000X3.0000*%
%ADD16C,1.6088*%
%ADD17C,1.8202*%
%ADD18C,1.4000*%
%ADD19R,1.4000X1.4000*%
%ADD20C,1.2446*%
%ADD21R,1.2446X1.2446*%
%ADD22R,0.5291X0.5291*%
%ADD23C,0.9949*%
%ADD24R,0.6985X0.6985*%
%ADD25C,1.1006*%
%ADD26C,1.6764*%
%ADD27R,1.6764X1.6764*%
%ADD28C,1.8556*%
%ADD29C,1.2700*%


G04 ColorRGB FF00CC for the following layer *
%LNSolder Mask Top*%
%LPD*%
G54D10*
G54D11*
X-27872Y-45720D02*
X-27872Y31437D01*
X-27872Y-45720D02*
X65339Y-45720D01*
X904240Y-45720D02*
X811029Y-45720D01*
X904240Y-45720D02*
X904240Y31437D01*
X904240Y725851D02*
X904240Y648694D01*
X904240Y725851D02*
X811029Y725851D01*
X-27872Y725851D02*
X65339Y725851D01*
X-27872Y725851D02*
X-27872Y648694D01*
X-77872Y-45720D02*
X-177872Y-45720D01*
X-127872Y-95720D02*
X-127872Y4280D01*
X-165372Y-45720D02*
G75*
D01*
G02X-165372Y-45720I37500J0*
G01*
X954240Y-45720D02*
X1054240Y-45720D01*
X1004240Y-95720D02*
X1004240Y4280D01*
X966740Y-45720D02*
G75*
D01*
G02X966740Y-45720I37500J0*
G01*
X991740Y-45720D02*
G75*
D01*
G02X991740Y-45720I12500J0*
G01*
X-77872Y725851D02*
X-177872Y725851D01*
X-127872Y675851D02*
X-127872Y775851D01*
X-165372Y725851D02*
G75*
D01*
G02X-165372Y725851I37500J0*
G01*
X-152872Y725851D02*
G75*
D01*
G02X-152872Y725851I25000J0*
G01*
X-140372Y725851D02*
G75*
D01*
G02X-140372Y725851I12500J0*
G01*
G54D12*
X71120Y345440D03*
X71120Y95462D03*
X71120Y245322D03*
X71120Y170392D03*
X396240Y436880D03*
X396240Y386080D03*
X294640Y411480D03*
G54D13*
X142240Y27300D03*
X142240Y128900D03*
X182880Y27300D03*
X182880Y128900D03*
X142240Y306700D03*
X142240Y205100D03*
X182880Y306700D03*
X182880Y205100D03*
G54D14*
X360680Y74620D03*
X624840Y74620D03*
G54D15*
X360680Y174620D03*
X624840Y174620D03*
G54D16*
X279400Y238760D03*
X228600Y238760D03*
X325120Y335280D03*
X325120Y259080D03*
X441960Y299720D03*
X441960Y350520D03*
X807720Y299720D03*
X807720Y375920D03*
X807720Y350520D03*
X807720Y325120D03*
X680720Y335280D03*
X680720Y411480D03*
X787400Y147320D03*
X787400Y172720D03*
X594360Y452120D03*
X594360Y502920D03*
G54D17*
X492760Y255900D03*
X467360Y255900D03*
X518160Y255900D03*
X88900Y452120D03*
X127000Y452120D03*
X787400Y500380D03*
X787400Y538480D03*
G54D18*
X386080Y299320D03*
X555160Y279400D03*
X516720Y421640D03*
X720960Y254000D03*
X721360Y440520D03*
X433240Y528320D03*
X394800Y528320D03*
X191600Y528320D03*
X787400Y110320D03*
X492760Y108120D03*
G54D19*
X386080Y274320D03*
X645160Y279300D03*
X426720Y421740D03*
X695960Y254000D03*
X721260Y350520D03*
X523240Y528220D03*
X304800Y528420D03*
X101600Y528420D03*
X787300Y20320D03*
X492860Y198120D03*
G54D20*
X518160Y391160D03*
X543560Y314960D03*
X594360Y314960D03*
X568960Y314960D03*
X594360Y391160D03*
X543560Y391160D03*
X568960Y391160D03*
G54D21*
X518160Y314960D03*
G54D22*
X807720Y401320D03*
G54D23*
X805075Y398675D02*
X810365Y398675D01*
X810365Y403965D01*
X805075Y403965D01*
X805075Y398675D01*D02*
G54D24*
X50800Y452120D03*
X787400Y462280D03*
G54D25*
X47308Y448628D02*
X54292Y448628D01*
X54292Y455612D01*
X47308Y455612D01*
X47308Y448628D01*D02*
X783908Y458788D02*
X790892Y458788D01*
X790892Y465772D01*
X783908Y465772D01*
X783908Y458788D01*D02*
G54D26*
X152131Y555889D03*
X126731Y555889D03*
X355600Y555889D03*
X330200Y555889D03*
X574040Y555889D03*
X548640Y555889D03*
G54D27*
X101331Y555889D03*
X304800Y555889D03*
X523240Y555889D03*
G54D28*
X779780Y350520D03*
X779780Y429260D03*
X751840Y411480D03*
X751840Y325120D03*
X162560Y327660D03*
X276860Y327660D03*
X568960Y419100D03*
X624840Y419100D03*
X414020Y543560D03*
X414020Y474980D03*
X266700Y474980D03*
X266700Y528320D03*
G54D29*
X645160Y452120D03*
X695960Y452120D03*
X670560Y452120D03*

M02*
