G04 Generated by Ultiboard 14.1 *
%FSLAX34Y34*%
%MOMM*%

%ADD10C,0.0001*%
%ADD11C,0.1270*%


G04 ColorRGB FF00CC for the following layer *
%LNGlue Mask Top*%
%LPD*%
G54D10*
G54D11*
X-27872Y-45720D02*
X-27872Y31437D01*
X-27872Y-45720D02*
X65339Y-45720D01*
X904240Y-45720D02*
X811029Y-45720D01*
X904240Y-45720D02*
X904240Y31437D01*
X904240Y725851D02*
X904240Y648694D01*
X904240Y725851D02*
X811029Y725851D01*
X-27872Y725851D02*
X65339Y725851D01*
X-27872Y725851D02*
X-27872Y648694D01*
X-77872Y-45720D02*
X-177872Y-45720D01*
X-127872Y-95720D02*
X-127872Y4280D01*
X-165372Y-45720D02*
G75*
D01*
G02X-165372Y-45720I37500J0*
G01*
X954240Y-45720D02*
X1054240Y-45720D01*
X1004240Y-95720D02*
X1004240Y4280D01*
X966740Y-45720D02*
G75*
D01*
G02X966740Y-45720I37500J0*
G01*
X991740Y-45720D02*
G75*
D01*
G02X991740Y-45720I12500J0*
G01*
X-77872Y725851D02*
X-177872Y725851D01*
X-127872Y675851D02*
X-127872Y775851D01*
X-165372Y725851D02*
G75*
D01*
G02X-165372Y725851I37500J0*
G01*
X-152872Y725851D02*
G75*
D01*
G02X-152872Y725851I25000J0*
G01*
X-140372Y725851D02*
G75*
D01*
G02X-140372Y725851I12500J0*
G01*

M02*
