M48
METRIC,TZ
VER,1
FMAT,2
DETECT,ON
ATC,ON
T1C1.3124
T2C1.1006
T3C2.0000
T4C0.8890
T5C0.8000
T6C0.9949
T7C1.3208
T8C1.5000
%
T1
X71120Y345440
Y95462
Y245322
Y170392
X396240Y436880
Y386080
X294640Y411480
T2
X142240Y27300
Y128900
X182880Y27300
Y128900
X142240Y306700
Y205100
X182880Y306700
Y205100
X50800Y452120
X787400Y462280
T3
X360680Y74620
Y174620
X624840Y74620
Y174620
T4
X279400Y238760
X228600
X492760Y255900
X467360
X518160
X325120Y335280
Y259080
X441960Y299720
Y350520
X518160Y391160
X543560Y314960
X594360
X568960
X594360Y391160
X543560
X568960
X518160Y314960
X807720Y299720
Y375920
Y350520
Y325120
X680720Y335280
Y411480
X88900Y452120
X127000
X787400Y500380
Y538480
Y147320
Y172720
X594360Y452120
Y502920
X645160Y452120
X695960
X670560
T5
X386080Y299320
Y274320
X555160Y279400
X645160Y279300
X516720Y421640
X426720Y421740
X695960Y254000
X720960
X721360Y440520
X721260Y350520
X433240Y528320
X523240Y528220
X394800Y528320
X304800Y528420
X191600Y528320
X101600Y528420
X787400Y110320
X787300Y20320
X492760Y108120
X492860Y198120
T6
X807720Y401320
T7
X152131Y555889
X126731
X101331
X355600
X330200
X304800
X574040
X548640
X523240
T8
X779780Y350520
Y429260
X751840Y411480
Y325120
X162560Y327660
X276860
X568960Y419100
X624840
X414020Y543560
Y474980
X266700
Y528320
M30
